<?xml version="1.0" encoding="UTF-8" standalone="no"?>
<svg
   xmlns:dc="http://purl.org/dc/elements/1.1/"
   xmlns:cc="http://creativecommons.org/ns#"
   xmlns:rdf="http://www.w3.org/1999/02/22-rdf-syntax-ns#"
   xmlns:svg="http://www.w3.org/2000/svg"
   xmlns="http://www.w3.org/2000/svg"
   xmlns:sodipodi="http://sodipodi.sourceforge.net/DTD/sodipodi-0.dtd"
   xmlns:inkscape="http://www.inkscape.org/namespaces/inkscape"
   inkscape:version="1.0 (4035a4fb49, 2020-05-01)"
   sodipodi:docname="Kreuz.svg"
   id="svg271"
   version="1.1"
   height="398.59457"
   width="398.59457"
   viewBox="0 0 298.94593 298.94593"
   style="isolation:isolate">
  <metadata
     id="metadata275">
    <rdf:RDF>
      <cc:Work
         rdf:about="">
        <dc:format>image/svg+xml</dc:format>
        <dc:type
           rdf:resource="http://purl.org/dc/dcmitype/StillImage" />
      </cc:Work>
    </rdf:RDF>
  </metadata>
  <sodipodi:namedview
     inkscape:current-layer="svg271"
     inkscape:window-maximized="0"
     inkscape:window-y="0"
     inkscape:window-x="0"
     inkscape:cy="209.29728"
     inkscape:cx="155.96394"
     inkscape:zoom="0.83276367"
     showgrid="false"
     id="namedview273"
     inkscape:window-height="480"
     inkscape:window-width="705"
     inkscape:pageshadow="2"
     inkscape:pageopacity="0"
     guidetolerance="10"
     gridtolerance="10"
     objecttolerance="10"
     borderopacity="1"
     bordercolor="#666666"
     pagecolor="#ffffff" />
  <defs
     id="defs257">
    <clipPath
       id="a">
      <path
         id="path254"
         d="M 0,0 H 1024 V 768 H 0 Z" />
    </clipPath>
  </defs>
  <g
     transform="translate(-395.02704,-227.02704)"
     id="g269"
     clip-path="url(#a)"
     fill-rule="evenodd">
    <path
       id="path259"
       fill="#ebebeb"
       d="m 559.158,379.388 45.682,-51.649 -19.315,-17.083 -42.694,48.271 -38.515,-48.271 -20.156,16.083 41.329,51.795 -41.329,46.727 19.315,17.083 38.34,-43.349 37.772,47.338 20.155,-16.082 z" />
    <path
       id="path261"
       d="m 559.158,379.388 45.682,-51.649 -19.315,-17.083 -42.694,48.271 -38.515,-48.271 -20.156,16.083 41.329,51.795 -41.329,46.727 19.315,17.083 38.34,-43.349 37.772,47.338 20.155,-16.082 z" />
    <path
       id="path263"
       fill="#ebebeb"
       d="m 432.517,277.454 c 54.665,-61.805 149.224,-67.602 211.029,-12.937 61.805,54.665 67.602,149.224 12.937,211.029 -54.665,61.805 -149.224,67.602 -211.029,12.937 -61.805,-54.665 -67.602,-149.224 -12.937,-211.029 z m 20.974,18.55 c 44.426,-50.229 121.275,-54.94 171.505,-10.513 50.229,44.426 54.94,121.275 10.513,171.505 -44.426,50.229 -121.275,54.94 -171.505,10.513 -50.229,-44.426 -54.94,-121.275 -10.513,-171.505 z" />
    <path
       id="path265"
       d="m 432.517,277.454 c 54.665,-61.805 149.224,-67.602 211.029,-12.937 61.805,54.665 67.602,149.224 12.937,211.029 -54.665,61.805 -149.224,67.602 -211.029,12.937 -61.805,-54.665 -67.602,-149.224 -12.937,-211.029 z m 20.974,18.55 c 44.426,-50.229 121.275,-54.94 171.505,-10.513 50.229,44.426 54.94,121.275 10.513,171.505 -44.426,50.229 -121.275,54.94 -171.505,10.513 -50.229,-44.426 -54.94,-121.275 -10.513,-171.505 z" />
    <path
       id="path267"
       d="m 432.517,277.454 c 54.665,-61.805 149.224,-67.602 211.029,-12.937 61.805,54.665 67.602,149.224 12.937,211.029 -54.665,61.805 -149.224,67.602 -211.029,12.937 -61.805,-54.665 -67.602,-149.224 -12.937,-211.029 z m 20.974,18.55 c 44.426,-50.229 121.275,-54.94 171.505,-10.513 50.229,44.426 54.94,121.275 10.513,171.505 -44.426,50.229 -121.275,54.94 -171.505,10.513 -50.229,-44.426 -54.94,-121.275 -10.513,-171.505 z" />
  </g>
</svg>
