<?xml version="1.0" encoding="UTF-8" standalone="no"?><!-- Generator: Gravit.io --><svg xmlns="http://www.w3.org/2000/svg" xmlns:xlink="http://www.w3.org/1999/xlink" style="isolation:isolate" viewBox="0 0 1024 768" width="1024pt" height="768pt"><defs><clipPath id="_clipPath_BFoOyflxryQQB2vJMIRZrhNGdrHvPc47"><rect width="1024" height="768"/></clipPath></defs><g clip-path="url(#_clipPath_BFoOyflxryQQB2vJMIRZrhNGdrHvPc47)"><g><path d=" M 559.158 379.388 L 604.84 327.739 L 585.525 310.656 L 542.831 358.927 L 504.316 310.656 L 484.16 326.739 L 525.489 378.534 L 484.16 425.261 L 503.475 442.344 L 541.815 398.995 L 579.587 446.333 L 599.742 430.251 L 559.158 379.388 Z " fill-rule="evenodd" fill="rgb(235,235,235)"/><path d=" M 559.158 379.388 L 604.84 327.739 L 585.525 310.656 L 542.831 358.927 L 504.316 310.656 L 484.16 326.739 L 525.489 378.534 L 484.16 425.261 L 503.475 442.344 L 541.815 398.995 L 579.587 446.333 L 599.742 430.251 L 559.158 379.388 Z " fill-rule="evenodd" fill="rgb(0,0,0)"/><path d=" M 432.517 277.454 C 487.182 215.649 581.741 209.852 643.546 264.517 C 705.351 319.182 711.148 413.741 656.483 475.546 C 601.818 537.351 507.259 543.148 445.454 488.483 C 383.649 433.818 377.852 339.259 432.517 277.454 Z  M 453.491 296.004 C 497.917 245.775 574.766 241.064 624.996 285.491 C 675.225 329.917 679.936 406.766 635.509 456.996 C 591.083 507.225 514.234 511.936 464.004 467.509 C 413.775 423.083 409.064 346.234 453.491 296.004 Z " fill-rule="evenodd" fill="rgb(235,235,235)"/><path d=" M 432.517 277.454 C 487.182 215.649 581.741 209.852 643.546 264.517 C 705.351 319.182 711.148 413.741 656.483 475.546 C 601.818 537.351 507.259 543.148 445.454 488.483 C 383.649 433.818 377.852 339.259 432.517 277.454 Z  M 453.491 296.004 C 497.917 245.775 574.766 241.064 624.996 285.491 C 675.225 329.917 679.936 406.766 635.509 456.996 C 591.083 507.225 514.234 511.936 464.004 467.509 C 413.775 423.083 409.064 346.234 453.491 296.004 Z " fill-rule="evenodd" fill="rgb(0,0,0)"/><path d=" M 432.517 277.454 C 487.182 215.649 581.741 209.852 643.546 264.517 C 705.351 319.182 711.148 413.741 656.483 475.546 C 601.818 537.351 507.259 543.148 445.454 488.483 C 383.649 433.818 377.852 339.259 432.517 277.454 Z  M 453.491 296.004 C 497.917 245.775 574.766 241.064 624.996 285.491 C 675.225 329.917 679.936 406.766 635.509 456.996 C 591.083 507.225 514.234 511.936 464.004 467.509 C 413.775 423.083 409.064 346.234 453.491 296.004 Z " fill-rule="evenodd" fill="rgb(0,0,0)"/></g></g></svg>