<?xml version="1.0" encoding="UTF-8" standalone="no"?>
<svg
   xmlns:dc="http://purl.org/dc/elements/1.1/"
   xmlns:cc="http://creativecommons.org/ns#"
   xmlns:rdf="http://www.w3.org/1999/02/22-rdf-syntax-ns#"
   xmlns:svg="http://www.w3.org/2000/svg"
   xmlns="http://www.w3.org/2000/svg"
   xmlns:sodipodi="http://sodipodi.sourceforge.net/DTD/sodipodi-0.dtd"
   xmlns:inkscape="http://www.inkscape.org/namespaces/inkscape"
   inkscape:version="1.0 (4035a4fb49, 2020-05-01)"
   sodipodi:docname="Minus.svg"
   id="svg446"
   version="1.1"
   height="398.66669"
   width="398.66669"
   viewBox="0 0 299.00002 299.00002"
   style="isolation:isolate">
  <metadata
     id="metadata450">
    <rdf:RDF>
      <cc:Work
         rdf:about="">
        <dc:format>image/svg+xml</dc:format>
        <dc:type
           rdf:resource="http://purl.org/dc/dcmitype/StillImage" />
      </cc:Work>
    </rdf:RDF>
  </metadata>
  <sodipodi:namedview
     inkscape:current-layer="svg446"
     inkscape:window-maximized="0"
     inkscape:window-y="0"
     inkscape:window-x="0"
     inkscape:cy="142.66666"
     inkscape:cx="199.33333"
     inkscape:zoom="0.83276367"
     showgrid="false"
     id="namedview448"
     inkscape:window-height="480"
     inkscape:window-width="705"
     inkscape:pageshadow="2"
     inkscape:pageopacity="0"
     guidetolerance="10"
     gridtolerance="10"
     objecttolerance="10"
     borderopacity="1"
     bordercolor="#666666"
     pagecolor="#ffffff" />
  <defs
     id="defs434">
    <clipPath
       id="a">
      <path
         id="path431"
         d="M 0,0 H 1024 V 768 H 0 Z" />
    </clipPath>
  </defs>
  <g
     transform="translate(-362.5,-277)"
     id="g444"
     clip-path="url(#a)">
    <path
       id="path436"
       fill="#ebebeb"
       fill-rule="evenodd"
       d="M 362.5,426.5 C 362.5,343.989 429.489,277 512,277 594.511,277 661.5,343.989 661.5,426.5 661.5,509.011 594.511,576 512,576 429.489,576 362.5,509.011 362.5,426.5 Z m 28,0 C 390.5,359.442 444.942,305 512,305 579.058,305 633.5,359.442 633.5,426.5 633.5,493.558 579.058,548 512,548 444.942,548 390.5,493.558 390.5,426.5 Z" />
    <path
       id="path438"
       fill-rule="evenodd"
       d="M 362.5,426.5 C 362.5,343.989 429.489,277 512,277 594.511,277 661.5,343.989 661.5,426.5 661.5,509.011 594.511,576 512,576 429.489,576 362.5,509.011 362.5,426.5 Z m 28,0 C 390.5,359.442 444.942,305 512,305 579.058,305 633.5,359.442 633.5,426.5 633.5,493.558 579.058,548 512,548 444.942,548 390.5,493.558 390.5,426.5 Z" />
    <path
       id="path440"
       d="m 595.86,415.995 -0.423,23.54 -167.599,-2.515 0.424,-23.538 z"
       fill="#ebebeb" />
    <path
       id="path442"
       d="m 595.86,415.995 -0.423,23.54 -167.599,-2.515 0.424,-23.538 z" />
  </g>
</svg>
