<?xml version="1.0" encoding="UTF-8" standalone="no"?><!-- Generator: Gravit.io --><svg xmlns="http://www.w3.org/2000/svg" xmlns:xlink="http://www.w3.org/1999/xlink" style="isolation:isolate" viewBox="0 0 1024 768" width="1024pt" height="768pt"><defs><clipPath id="_clipPath_gWiz5bPZ3WDfjP7zmMeijdDF4Nx18V8k"><rect width="1024" height="768"/></clipPath></defs><g clip-path="url(#_clipPath_gWiz5bPZ3WDfjP7zmMeijdDF4Nx18V8k)"><path d=" M 362.5 426.5 C 362.5 343.989 429.489 277 512 277 C 594.511 277 661.5 343.989 661.5 426.5 C 661.5 509.011 594.511 576 512 576 C 429.489 576 362.5 509.011 362.5 426.5 Z  M 390.5 426.5 C 390.5 359.442 444.942 305 512 305 C 579.058 305 633.5 359.442 633.5 426.5 C 633.5 493.558 579.058 548 512 548 C 444.942 548 390.5 493.558 390.5 426.5 Z " fill-rule="evenodd" fill="rgb(235,235,235)"/><path d=" M 362.5 426.5 C 362.5 343.989 429.489 277 512 277 C 594.511 277 661.5 343.989 661.5 426.5 C 661.5 509.011 594.511 576 512 576 C 429.489 576 362.5 509.011 362.5 426.5 Z  M 390.5 426.5 C 390.5 359.442 444.942 305 512 305 C 579.058 305 633.5 359.442 633.5 426.5 C 633.5 493.558 579.058 548 512 548 C 444.942 548 390.5 493.558 390.5 426.5 Z " fill-rule="evenodd" fill="rgb(0,0,0)"/><rect x="500.23" y="342.701" width="23.539" height="167.599" transform="matrix(-0.018,1,-1,-0.015,947.566,-79.094)" fill="rgb(235,235,235)"/><rect x="500.23" y="342.701" width="23.539" height="167.599" transform="matrix(-0.018,1,-1,-0.015,947.566,-79.094)" fill="rgb(0,0,0)"/></g></svg>