<?xml version="1.0" encoding="UTF-8" standalone="no"?><!-- Generator: Gravit.io --><svg xmlns="http://www.w3.org/2000/svg" xmlns:xlink="http://www.w3.org/1999/xlink" style="isolation:isolate" viewBox="0 0 1366 768" width="1366pt" height="768pt"><defs><clipPath id="_clipPath_ruDzRKhhZIuU3v9Xg1Djm0ZJsAOTGzsN"><rect width="1366" height="768"/></clipPath></defs><g clip-path="url(#_clipPath_ruDzRKhhZIuU3v9Xg1Djm0ZJsAOTGzsN)"><path d=" M 659.534 269.455 L 682.986 269.977 L 682.986 269.977 L 664.471 234.988 L 645.956 200 L 626.012 234.132 L 606.068 268.265 L 629.534 268.787 L 629.534 378.72 L 606.068 378.491 L 606.068 378.491 L 624.988 413.246 L 643.908 448 L 663.454 413.621 L 683 379.241 L 659.534 379.013 L 659.534 269.455 Z " fill-rule="evenodd" fill="rgb(235,235,235)"/><path d=" M 659.534 269.455 L 682.986 269.977 L 682.986 269.977 L 664.471 234.988 L 645.956 200 L 626.012 234.132 L 606.068 268.265 L 629.534 268.787 L 629.534 378.72 L 606.068 378.491 L 606.068 378.491 L 624.988 413.246 L 643.908 448 L 663.454 413.621 L 683 379.241 L 659.534 379.013 L 659.534 269.455 Z " fill-rule="evenodd" fill="rgb(0,0,0)"/></g></svg>