<?xml version="1.0" encoding="UTF-8" standalone="no"?>
<svg
   xmlns:dc="http://purl.org/dc/elements/1.1/"
   xmlns:cc="http://creativecommons.org/ns#"
   xmlns:rdf="http://www.w3.org/1999/02/22-rdf-syntax-ns#"
   xmlns:svg="http://www.w3.org/2000/svg"
   xmlns="http://www.w3.org/2000/svg"
   xmlns:sodipodi="http://sodipodi.sourceforge.net/DTD/sodipodi-0.dtd"
   xmlns:inkscape="http://www.inkscape.org/namespaces/inkscape"
   inkscape:version="1.0 (4035a4fb49, 2020-05-01)"
   sodipodi:docname="Plus.svg"
   id="svg615"
   version="1.1"
   height="398.66669"
   width="398.66669"
   viewBox="0 0 299.00002 299.00002"
   style="isolation:isolate">
  <metadata
     id="metadata619">
    <rdf:RDF>
      <cc:Work
         rdf:about="">
        <dc:format>image/svg+xml</dc:format>
        <dc:type
           rdf:resource="http://purl.org/dc/dcmitype/StillImage" />
      </cc:Work>
    </rdf:RDF>
  </metadata>
  <sodipodi:namedview
     inkscape:current-layer="svg615"
     inkscape:window-maximized="0"
     inkscape:window-y="0"
     inkscape:window-x="0"
     inkscape:cy="209.33333"
     inkscape:cx="155.99999"
     inkscape:zoom="0.83276367"
     showgrid="false"
     id="namedview617"
     inkscape:window-height="480"
     inkscape:window-width="705"
     inkscape:pageshadow="2"
     inkscape:pageopacity="0"
     guidetolerance="10"
     gridtolerance="10"
     objecttolerance="10"
     borderopacity="1"
     bordercolor="#666666"
     pagecolor="#ffffff" />
  <defs
     id="defs601">
    <clipPath
       id="a">
      <path
         id="path598"
         d="M 0,0 H 1024 V 768 H 0 Z" />
    </clipPath>
  </defs>
  <g
     transform="translate(-395,-227)"
     id="g613"
     clip-path="url(#a)"
     fill-rule="evenodd">
    <path
       id="path603"
       fill="#ebebeb"
       d="m 557.393,388.462 70.688,1.048 0.419,-23.535 -71.107,-1.055 V 300 h -25.786 v 64.538 l -70.688,-1.048 -0.419,23.535 71.107,1.055 V 453 h 25.786 z" />
    <path
       id="path605"
       d="m 557.393,388.462 70.688,1.048 0.419,-23.535 -71.107,-1.055 V 300 h -25.786 v 64.538 l -70.688,-1.048 -0.419,23.535 71.107,1.055 V 453 h 25.786 z" />
    <path
       id="path607"
       fill="#ebebeb"
       d="M 395,376.5 C 395,293.989 461.989,227 544.5,227 627.011,227 694,293.989 694,376.5 694,459.011 627.011,526 544.5,526 461.989,526 395,459.011 395,376.5 Z m 28,0 C 423,309.442 477.442,255 544.5,255 611.558,255 666,309.442 666,376.5 666,443.558 611.558,498 544.5,498 477.442,498 423,443.558 423,376.5 Z" />
    <path
       id="path609"
       d="M 395,376.5 C 395,293.989 461.989,227 544.5,227 627.011,227 694,293.989 694,376.5 694,459.011 627.011,526 544.5,526 461.989,526 395,459.011 395,376.5 Z m 28,0 C 423,309.442 477.442,255 544.5,255 611.558,255 666,309.442 666,376.5 666,443.558 611.558,498 544.5,498 477.442,498 423,443.558 423,376.5 Z" />
    <path
       id="path611"
       d="M 395,376.5 C 395,293.989 461.989,227 544.5,227 627.011,227 694,293.989 694,376.5 694,459.011 627.011,526 544.5,526 461.989,526 395,459.011 395,376.5 Z m 28,0 C 423,309.442 477.442,255 544.5,255 611.558,255 666,309.442 666,376.5 666,443.558 611.558,498 544.5,498 477.442,498 423,443.558 423,376.5 Z" />
  </g>
</svg>
