<?xml version="1.0" encoding="UTF-8" standalone="no"?><!-- Generator: Gravit.io --><svg xmlns="http://www.w3.org/2000/svg" xmlns:xlink="http://www.w3.org/1999/xlink" style="isolation:isolate" viewBox="0 0 1024 768" width="1024pt" height="768pt"><defs><clipPath id="_clipPath_BSnHQOd9HmTCZ9UNb9xkqMMkGsjuppbd"><rect width="1024" height="768"/></clipPath></defs><g clip-path="url(#_clipPath_BSnHQOd9HmTCZ9UNb9xkqMMkGsjuppbd)"><g><path d=" M 557.393 388.462 L 628.081 389.51 L 628.5 365.975 L 557.393 364.92 L 557.393 300 L 531.607 300 L 531.607 364.538 L 460.919 363.49 L 460.5 387.025 L 531.607 388.08 L 531.607 453 L 557.393 453 L 557.393 388.462 Z " fill-rule="evenodd" fill="rgb(235,235,235)"/><path d=" M 557.393 388.462 L 628.081 389.51 L 628.5 365.975 L 557.393 364.92 L 557.393 300 L 531.607 300 L 531.607 364.538 L 460.919 363.49 L 460.5 387.025 L 531.607 388.08 L 531.607 453 L 557.393 453 L 557.393 388.462 Z " fill-rule="evenodd" fill="rgb(0,0,0)"/><path d=" M 395 376.5 C 395 293.989 461.989 227 544.5 227 C 627.011 227 694 293.989 694 376.5 C 694 459.011 627.011 526 544.5 526 C 461.989 526 395 459.011 395 376.5 Z  M 423 376.5 C 423 309.442 477.442 255 544.5 255 C 611.558 255 666 309.442 666 376.5 C 666 443.558 611.558 498 544.5 498 C 477.442 498 423 443.558 423 376.5 Z " fill-rule="evenodd" fill="rgb(235,235,235)"/><path d=" M 395 376.5 C 395 293.989 461.989 227 544.5 227 C 627.011 227 694 293.989 694 376.5 C 694 459.011 627.011 526 544.5 526 C 461.989 526 395 459.011 395 376.5 Z  M 423 376.5 C 423 309.442 477.442 255 544.5 255 C 611.558 255 666 309.442 666 376.5 C 666 443.558 611.558 498 544.5 498 C 477.442 498 423 443.558 423 376.5 Z " fill-rule="evenodd" fill="rgb(0,0,0)"/><path d=" M 395 376.5 C 395 293.989 461.989 227 544.5 227 C 627.011 227 694 293.989 694 376.5 C 694 459.011 627.011 526 544.5 526 C 461.989 526 395 459.011 395 376.5 Z  M 423 376.5 C 423 309.442 477.442 255 544.5 255 C 611.558 255 666 309.442 666 376.5 C 666 443.558 611.558 498 544.5 498 C 477.442 498 423 443.558 423 376.5 Z " fill-rule="evenodd" fill="rgb(0,0,0)"/></g></g></svg>