<?xml version="1.0" encoding="UTF-8" standalone="no"?><!-- Generator: Gravit.io --><svg xmlns="http://www.w3.org/2000/svg" xmlns:xlink="http://www.w3.org/1999/xlink" style="isolation:isolate" viewBox="0 0 1024 768" width="1024pt" height="768pt"><defs><clipPath id="_clipPath_y1I8P4tgsWMvfb3syuBuMsx2w0xu94Zu"><rect width="1024" height="768"/></clipPath></defs><g clip-path="url(#_clipPath_y1I8P4tgsWMvfb3syuBuMsx2w0xu94Zu)"><path d=" M 338.117 197.312 L 392.275 223.138 L 314.796 385.61 L 260.639 359.783 L 338.117 197.312 Z " fill="rgb(255,255,255)" vector-effect="non-scaling-stroke" stroke-width="1" stroke="rgb(0,0,0)" stroke-linejoin="miter" stroke-linecap="square" stroke-miterlimit="3"/><path d=" M 261.891 426.854 L 261.484 405.075 L 260.639 359.783 L 314.796 385.61 L 261.891 426.854 Z " fill="rgb(255,255,255)" vector-effect="non-scaling-stroke" stroke-width="1" stroke="rgb(0,0,0)" stroke-linejoin="miter" stroke-linecap="square" stroke-miterlimit="3"/><line x1="351.865" y1="214.947" x2="282.995" y2="359.366" vector-effect="non-scaling-stroke" stroke-width="1" stroke="rgb(0,0,0)" stroke-linejoin="miter" stroke-linecap="square" stroke-miterlimit="3"/><line x1="369.918" y1="223.555" x2="301.048" y2="367.975" vector-effect="non-scaling-stroke" stroke-width="1" stroke="rgb(0,0,0)" stroke-linejoin="miter" stroke-linecap="square" stroke-miterlimit="3"/><path d=" M 342.422 188.286 L 396.579 214.112 L 392.275 223.138 L 338.117 197.312 L 342.422 188.286 Z " fill="rgb(255,255,255)" vector-effect="non-scaling-stroke" stroke-width="1" stroke="rgb(0,0,0)" stroke-linejoin="miter" stroke-linecap="square" stroke-miterlimit="3"/><path d=" M 351.03 170.233 L 405.188 196.059 L 396.579 214.112 L 342.422 188.286 L 351.03 170.233 Z " fill="rgb(0,0,0)" vector-effect="non-scaling-stroke" stroke-width="1" stroke="rgb(0,0,0)" stroke-linejoin="miter" stroke-linecap="square" stroke-miterlimit="3"/><path d=" M 261.473 404.497 L 279.526 413.106 L 261.891 426.854 L 261.473 404.497 Z " fill="rgb(0,0,0)" vector-effect="non-scaling-stroke" stroke-width="1" stroke="rgb(0,0,0)" stroke-linejoin="miter" stroke-linecap="square" stroke-miterlimit="3"/></g></svg>