<?xml version="1.0" encoding="UTF-8" standalone="no"?><!-- Generator: Gravit.io --><svg xmlns="http://www.w3.org/2000/svg" xmlns:xlink="http://www.w3.org/1999/xlink" style="isolation:isolate" viewBox="0 0 337 130" width="337pt" height="130pt"><defs><clipPath id="_clipPath_6yra6dGcKsKP7xURixHCbeGrsiZyd33M"><rect width="337" height="130"/></clipPath></defs><g clip-path="url(#_clipPath_6yra6dGcKsKP7xURixHCbeGrsiZyd33M)"><rect x="0.7" y="1.167" width="336.197" height="128.409" transform="matrix(1,0,0,1,0,0)" fill="rgb(143,239,236)"/><path d=" M 20.059 42.878 L 20.059 53.666 L 28.411 53.666 L 28.411 58.074 L 20.059 58.074 L 20.059 75.416 L 20.059 75.416 Q 20.059 77.562 21.016 78.867 L 21.016 78.867 L 21.016 78.867 Q 21.973 80.172 23.829 80.172 L 23.829 80.172 L 23.829 80.172 Q 25.105 80.172 26.12 79.911 L 26.12 79.911 L 26.12 79.911 Q 27.135 79.65 28.411 79.07 L 28.411 79.07 L 28.411 83.594 L 28.411 83.594 Q 27.077 84.232 25.859 84.435 L 25.859 84.435 L 25.859 84.435 Q 24.641 84.638 22.901 84.638 L 22.901 84.638 L 22.901 84.638 Q 19.189 84.638 17.072 82.26 L 17.072 82.26 L 17.072 82.26 Q 14.955 79.882 14.955 75.938 L 14.955 75.938 L 14.955 58.074 L 9.155 58.074 L 9.155 53.666 L 14.955 53.666 L 14.955 45.546 L 20.059 42.878 L 20.059 42.878 Z  M 61.761 68.804 L 61.761 70.486 L 40.301 70.486 L 40.301 70.486 Q 40.765 74.952 43.288 77.591 L 43.288 77.591 L 43.288 77.591 Q 45.811 80.23 50.161 80.23 L 50.161 80.23 L 50.161 80.23 Q 52.771 80.23 55.236 79.157 L 55.236 79.157 L 55.236 79.157 Q 57.701 78.084 60.253 75.996 L 60.253 75.996 L 60.485 75.996 L 60.485 81.1 L 60.485 81.1 Q 57.933 82.956 55.439 83.797 L 55.439 83.797 L 55.439 83.797 Q 52.945 84.638 50.103 84.638 L 50.103 84.638 L 50.103 84.638 Q 45.463 84.638 42.041 82.608 L 42.041 82.608 L 42.041 82.608 Q 38.619 80.578 36.792 76.953 L 36.792 76.953 L 36.792 76.953 Q 34.965 73.328 34.965 68.63 L 34.965 68.63 L 34.965 68.63 Q 34.965 64.164 36.618 60.597 L 36.618 60.597 L 36.618 60.597 Q 38.271 57.03 41.345 55 L 41.345 55 L 41.345 55 Q 44.419 52.97 48.537 52.97 L 48.537 52.97 L 48.537 52.97 Q 52.713 52.97 55.7 55.029 L 55.7 55.029 L 55.7 55.029 Q 58.687 57.088 60.224 60.684 L 60.224 60.684 L 60.224 60.684 Q 61.761 64.28 61.761 68.804 L 61.761 68.804 L 61.761 68.804 Z  M 48.595 57.204 L 48.595 57.204 Q 44.999 57.204 42.853 59.814 L 42.853 59.814 L 42.853 59.814 Q 40.707 62.424 40.301 66.542 L 40.301 66.542 L 56.483 66.542 L 56.483 66.542 Q 56.077 62.308 54.134 59.756 L 54.134 59.756 L 54.134 59.756 Q 52.191 57.204 48.595 57.204 L 48.595 57.204 L 48.595 57.204 Z  M 73.825 46.822 L 73.825 46.822 Q 72.201 46.822 71.186 45.778 L 71.186 45.778 L 71.186 45.778 Q 70.171 44.734 70.171 43.11 L 70.171 43.11 L 70.171 43.11 Q 70.171 41.486 71.186 40.442 L 71.186 40.442 L 71.186 40.442 Q 72.201 39.398 73.825 39.398 L 73.825 39.398 L 73.825 39.398 Q 75.449 39.398 76.464 40.442 L 76.464 40.442 L 76.464 40.442 Q 77.479 41.486 77.479 43.11 L 77.479 43.11 L 77.479 43.11 Q 77.479 44.734 76.464 45.778 L 76.464 45.778 L 76.464 45.778 Q 75.449 46.822 73.825 46.822 L 73.825 46.822 L 73.825 46.822 Z  M 71.273 53.666 L 76.377 53.666 L 76.377 83.942 L 71.273 83.942 L 71.273 53.666 L 71.273 53.666 Z  M 87.513 83.942 L 87.513 40.21 L 92.617 40.21 L 92.617 83.942 L 87.513 83.942 L 87.513 83.942 Z  M 120.167 52.97 L 120.167 52.97 Q 124.459 52.97 126.663 55.609 L 126.663 55.609 L 126.663 55.609 Q 128.867 58.248 128.867 62.946 L 128.867 62.946 L 128.867 83.942 L 123.763 83.942 L 123.763 63.642 L 123.763 63.642 Q 123.763 60.742 122.545 59.147 L 122.545 59.147 L 122.545 59.147 Q 121.327 57.552 118.833 57.552 L 118.833 57.552 L 118.833 57.552 Q 115.991 57.552 114.048 58.48 L 114.048 58.48 L 114.048 58.48 Q 112.105 59.408 109.727 61.496 L 109.727 61.496 L 109.727 83.942 L 104.623 83.942 L 104.623 60.394 L 103.347 53.666 L 108.451 53.666 L 109.263 57.9 L 109.263 57.9 Q 111.989 55.29 114.338 54.13 L 114.338 54.13 L 114.338 54.13 Q 116.687 52.97 120.167 52.97 L 120.167 52.97 L 120.167 52.97 Z  M 166.161 68.804 L 166.161 70.486 L 144.701 70.486 L 144.701 70.486 Q 145.165 74.952 147.688 77.591 L 147.688 77.591 L 147.688 77.591 Q 150.211 80.23 154.561 80.23 L 154.561 80.23 L 154.561 80.23 Q 157.171 80.23 159.636 79.157 L 159.636 79.157 L 159.636 79.157 Q 162.101 78.084 164.653 75.996 L 164.653 75.996 L 164.885 75.996 L 164.885 81.1 L 164.885 81.1 Q 162.333 82.956 159.839 83.797 L 159.839 83.797 L 159.839 83.797 Q 157.345 84.638 154.503 84.638 L 154.503 84.638 L 154.503 84.638 Q 149.863 84.638 146.441 82.608 L 146.441 82.608 L 146.441 82.608 Q 143.019 80.578 141.192 76.953 L 141.192 76.953 L 141.192 76.953 Q 139.365 73.328 139.365 68.63 L 139.365 68.63 L 139.365 68.63 Q 139.365 64.164 141.018 60.597 L 141.018 60.597 L 141.018 60.597 Q 142.671 57.03 145.745 55 L 145.745 55 L 145.745 55 Q 148.819 52.97 152.937 52.97 L 152.937 52.97 L 152.937 52.97 Q 157.113 52.97 160.1 55.029 L 160.1 55.029 L 160.1 55.029 Q 163.087 57.088 164.624 60.684 L 164.624 60.684 L 164.624 60.684 Q 166.161 64.28 166.161 68.804 L 166.161 68.804 L 166.161 68.804 Z  M 152.995 57.204 L 152.995 57.204 Q 149.399 57.204 147.253 59.814 L 147.253 59.814 L 147.253 59.814 Q 145.107 62.424 144.701 66.542 L 144.701 66.542 L 160.883 66.542 L 160.883 66.542 Q 160.477 62.308 158.534 59.756 L 158.534 59.756 L 158.534 59.756 Q 156.591 57.204 152.995 57.204 L 152.995 57.204 L 152.995 57.204 Z  M 192.087 52.97 L 192.087 52.97 Q 196.379 52.97 198.583 55.609 L 198.583 55.609 L 198.583 55.609 Q 200.787 58.248 200.787 62.946 L 200.787 62.946 L 200.787 83.942 L 195.683 83.942 L 195.683 63.642 L 195.683 63.642 Q 195.683 60.742 194.465 59.147 L 194.465 59.147 L 194.465 59.147 Q 193.247 57.552 190.753 57.552 L 190.753 57.552 L 190.753 57.552 Q 187.911 57.552 185.968 58.48 L 185.968 58.48 L 185.968 58.48 Q 184.025 59.408 181.647 61.496 L 181.647 61.496 L 181.647 83.942 L 176.543 83.942 L 176.543 40.21 L 181.647 40.21 L 181.647 57.436 L 181.647 57.436 Q 184.199 55.116 186.49 54.043 L 186.49 54.043 L 186.49 54.043 Q 188.781 52.97 192.087 52.97 L 192.087 52.97 L 192.087 52.97 Z  M 246.607 52.97 L 246.607 52.97 Q 250.899 52.97 253.103 55.609 L 253.103 55.609 L 253.103 55.609 Q 255.307 58.248 255.307 62.946 L 255.307 62.946 L 255.307 83.942 L 250.203 83.942 L 250.203 63.642 L 250.203 63.642 Q 250.203 60.742 248.985 59.147 L 248.985 59.147 L 248.985 59.147 Q 247.767 57.552 245.273 57.552 L 245.273 57.552 L 245.273 57.552 Q 242.721 57.552 240.981 58.48 L 240.981 58.48 L 240.981 58.48 Q 239.241 59.408 236.979 61.496 L 236.979 61.496 L 236.979 61.496 Q 237.037 61.96 237.037 62.946 L 237.037 62.946 L 237.037 83.942 L 231.933 83.942 L 231.933 63.642 L 231.933 63.642 Q 231.933 60.742 230.715 59.147 L 230.715 59.147 L 230.715 59.147 Q 229.497 57.552 227.003 57.552 L 227.003 57.552 L 227.003 57.552 Q 224.451 57.552 222.711 58.451 L 222.711 58.451 L 222.711 58.451 Q 220.971 59.35 218.767 61.438 L 218.767 61.438 L 218.767 83.942 L 213.663 83.942 L 213.663 60.394 L 212.387 53.666 L 217.491 53.666 L 218.303 57.842 L 218.303 57.842 Q 220.913 55.232 223.03 54.101 L 223.03 54.101 L 223.03 54.101 Q 225.147 52.97 228.337 52.97 L 228.337 52.97 L 228.337 52.97 Q 231.353 52.97 233.354 54.304 L 233.354 54.304 L 233.354 54.304 Q 235.355 55.638 236.283 58.132 L 236.283 58.132 L 236.283 58.132 Q 239.067 55.348 241.213 54.159 L 241.213 54.159 L 241.213 54.159 Q 243.359 52.97 246.607 52.97 L 246.607 52.97 L 246.607 52.97 Z  M 292.601 68.804 L 292.601 70.486 L 271.141 70.486 L 271.141 70.486 Q 271.605 74.952 274.128 77.591 L 274.128 77.591 L 274.128 77.591 Q 276.651 80.23 281.001 80.23 L 281.001 80.23 L 281.001 80.23 Q 283.611 80.23 286.076 79.157 L 286.076 79.157 L 286.076 79.157 Q 288.541 78.084 291.093 75.996 L 291.093 75.996 L 291.325 75.996 L 291.325 81.1 L 291.325 81.1 Q 288.773 82.956 286.279 83.797 L 286.279 83.797 L 286.279 83.797 Q 283.785 84.638 280.943 84.638 L 280.943 84.638 L 280.943 84.638 Q 276.303 84.638 272.881 82.608 L 272.881 82.608 L 272.881 82.608 Q 269.459 80.578 267.632 76.953 L 267.632 76.953 L 267.632 76.953 Q 265.805 73.328 265.805 68.63 L 265.805 68.63 L 265.805 68.63 Q 265.805 64.164 267.458 60.597 L 267.458 60.597 L 267.458 60.597 Q 269.111 57.03 272.185 55 L 272.185 55 L 272.185 55 Q 275.259 52.97 279.377 52.97 L 279.377 52.97 L 279.377 52.97 Q 283.553 52.97 286.54 55.029 L 286.54 55.029 L 286.54 55.029 Q 289.527 57.088 291.064 60.684 L 291.064 60.684 L 291.064 60.684 Q 292.601 64.28 292.601 68.804 L 292.601 68.804 L 292.601 68.804 Z  M 279.435 57.204 L 279.435 57.204 Q 275.839 57.204 273.693 59.814 L 273.693 59.814 L 273.693 59.814 Q 271.547 62.424 271.141 66.542 L 271.141 66.542 L 287.323 66.542 L 287.323 66.542 Q 286.917 62.308 284.974 59.756 L 284.974 59.756 L 284.974 59.756 Q 283.031 57.204 279.435 57.204 L 279.435 57.204 L 279.435 57.204 Z  M 318.527 52.97 L 318.527 52.97 Q 322.819 52.97 325.023 55.609 L 325.023 55.609 L 325.023 55.609 Q 327.227 58.248 327.227 62.946 L 327.227 62.946 L 327.227 83.942 L 322.123 83.942 L 322.123 63.642 L 322.123 63.642 Q 322.123 60.742 320.905 59.147 L 320.905 59.147 L 320.905 59.147 Q 319.687 57.552 317.193 57.552 L 317.193 57.552 L 317.193 57.552 Q 314.351 57.552 312.408 58.48 L 312.408 58.48 L 312.408 58.48 Q 310.465 59.408 308.087 61.496 L 308.087 61.496 L 308.087 83.942 L 302.983 83.942 L 302.983 60.394 L 301.707 53.666 L 306.811 53.666 L 307.623 57.9 L 307.623 57.9 Q 310.349 55.29 312.698 54.13 L 312.698 54.13 L 312.698 54.13 Q 315.047 52.97 318.527 52.97 L 318.527 52.97 L 318.527 52.97 Z " fill="rgb(0,0,0)"/></g></svg>