<?xml version="1.0" encoding="UTF-8" standalone="no"?><!-- Generator: Gravit.io --><svg xmlns="http://www.w3.org/2000/svg" xmlns:xlink="http://www.w3.org/1999/xlink" style="isolation:isolate" viewBox="0 0 232 250" width="232pt" height="250pt"><defs><clipPath id="_clipPath_3c5feAJUr1Qp9DG4yDzI32I964AAPxTQ"><rect width="232" height="250"/></clipPath></defs><g clip-path="url(#_clipPath_3c5feAJUr1Qp9DG4yDzI32I964AAPxTQ)"><rect x="101.5" y="0" width="30" height="250" transform="matrix(1,0,0,1,0,0)" fill="rgb(0,0,0)"/><path d=" M 130.5 48 L 210.5 48 L 230.5 68 L 210.5 88 L 130.5 88 L 130.5 48 Z " fill="rgb(0,0,0)" vector-effect="non-scaling-stroke" stroke-width="1" stroke="rgb(0,0,0)" stroke-linejoin="miter" stroke-linecap="square" stroke-miterlimit="3"/><path d=" M 101.5 51 L 21.5 51 L 1.5 31 L 21.5 11 L 101.5 11 L 101.5 51 Z " fill="rgb(0,0,0)" vector-effect="non-scaling-stroke" stroke-width="1" stroke="rgb(0,0,0)" stroke-linejoin="miter" stroke-linecap="square" stroke-miterlimit="3"/><g><path d=" M 169.462 81.696 L 164.817 81.696 L 174.107 81.696 L 169.462 81.696 Z " fill="rgb(255,255,255)" vector-effect="non-scaling-stroke" stroke-width="1" stroke="rgb(255,255,255)" stroke-linejoin="miter" stroke-linecap="square" stroke-miterlimit="3"/><path d=" M 164.817 75.594 C 164.803 73.393 165.061 71.827 163.673 70.004 C 161.714 67.43 160.603 64.704 161.097 62.107 C 161.679 59.047 163.224 57.586 164.559 55.833 C 165.609 54.453 168.991 53.11 170.677 53.294 C 173.014 53.55 175.153 54.958 176.393 56.044 C 178.028 57.476 177.715 57.961 178.752 59.323 C 179.631 61.286 179.606 66.255 176.429 69.492 C 175.084 71.26 174.571 72.722 174.059 74.516 C 173.966 74.841 173.866 75.714 173.898 75.714" fill="none" vector-effect="non-scaling-stroke" stroke-width="1" stroke="rgb(255,255,255)" stroke-linejoin="miter" stroke-linecap="square" stroke-miterlimit="3"/><path d=" M 164.817 81.696 L 164.817 75.594 L 174.107 75.594 L 174.107 81.696 L 164.817 79.662 L 174.107 77.628 L 164.817 75.594 L 164.817 81.696 Z " fill="rgb(0,0,0)" vector-effect="non-scaling-stroke" stroke-width="1" stroke="rgb(255,255,255)" stroke-linejoin="miter" stroke-linecap="square" stroke-miterlimit="3"/><path d=" M 167.055 75.479 C 167.072 73.298 167.799 70.994 167.491 68.836 C 167.3 67.997 166.328 71.368 168.801 69.744 C 168.883 69.69 168.946 69.617 169.019 69.553 C 169.092 69.489 169.17 69.429 169.238 69.362 C 169.297 69.302 169.353 69.238 169.401 69.171 C 169.444 69.11 169.494 69.049 169.51 68.979 C 169.853 67.481 167.425 70.735 170.002 69.983 C 170.283 69.901 170.75 69.571 170.929 69.362 C 170.978 69.305 171.013 69.238 171.038 69.171 C 171.068 69.093 171.093 69.013 171.093 68.932 C 171.093 67.843 169.016 69.983 170.984 69.983 C 171.515 69.983 172.5 68.693 172.13 68.693 C 171.288 68.693 171.73 72.835 171.639 73.233 C 171.441 74.099 171.584 74.752 171.584 75.383" fill="none" vector-effect="non-scaling-stroke" stroke-width="1" stroke="rgb(255,255,255)" stroke-linejoin="miter" stroke-linecap="square" stroke-miterlimit="3"/></g><g><path d=" M 54.66 17.061 L 65.675 16.947 L 62.003 27.833 L 65.623 28.973 L 55.132 45.899 L 58.227 32.791 L 56.024 31.879 L 54.66 17.061 Z " fill="rgb(0,0,0)" vector-effect="non-scaling-stroke" stroke-width="1" stroke="rgb(255,255,255)" stroke-linejoin="miter" stroke-linecap="square" stroke-miterlimit="3"/></g></g></svg>