<?xml version="1.0" encoding="UTF-8" standalone="no"?><!-- Generator: Gravit.io --><svg xmlns="http://www.w3.org/2000/svg" xmlns:xlink="http://www.w3.org/1999/xlink" style="isolation:isolate" viewBox="0 0 337 130" width="337pt" height="130pt"><defs><clipPath id="_clipPath_VSOn65DmeKDrCuoZ6AejexXTGAdTx8q3"><rect width="337" height="130"/></clipPath></defs><g clip-path="url(#_clipPath_VSOn65DmeKDrCuoZ6AejexXTGAdTx8q3)"><rect x="0" y="0" width="336" height="127" transform="matrix(1,0,0,1,0,0)" fill="rgb(250,109,15)"/><path d=" M 54.96 86.156 L 54.96 86.156 Q 51.504 86.156 48.156 85.112 L 48.156 85.112 L 48.156 85.112 Q 44.808 84.068 41.856 82.124 L 41.856 82.124 L 41.856 75.5 L 41.856 75.5 Q 48.408 80.54 54.816 80.54 L 54.816 80.54 L 54.816 80.54 Q 58.56 80.54 60.864 78.992 L 60.864 78.992 L 60.864 78.992 Q 63.168 77.444 63.168 74.852 L 63.168 74.852 L 63.168 74.852 Q 63.168 73.052 62.052 71.9 L 62.052 71.9 L 62.052 71.9 Q 60.936 70.748 59.28 70.1 L 59.28 70.1 L 59.28 70.1 Q 57.624 69.452 54.528 68.516 L 54.528 68.516 L 54.528 68.516 Q 50.712 67.436 48.228 66.392 L 48.228 66.392 L 48.228 66.392 Q 45.744 65.348 44.016 63.296 L 44.016 63.296 L 44.016 63.296 Q 42.288 61.244 42.288 57.932 L 42.288 57.932 L 42.288 57.932 Q 42.288 52.892 46.104 49.868 L 46.104 49.868 L 46.104 49.868 Q 49.92 46.844 56.112 46.844 L 56.112 46.844 L 56.112 46.844 Q 62.304 46.844 67.344 50.084 L 67.344 50.084 L 67.344 56.492 L 67.344 56.492 Q 64.536 54.332 61.908 53.396 L 61.908 53.396 L 61.908 53.396 Q 59.28 52.46 56.4 52.46 L 56.4 52.46 L 56.4 52.46 Q 52.8 52.46 50.712 53.756 L 50.712 53.756 L 50.712 53.756 Q 48.624 55.052 48.624 57.356 L 48.624 57.356 L 48.624 57.356 Q 48.624 59.012 49.74 60.092 L 49.74 60.092 L 49.74 60.092 Q 50.856 61.172 52.512 61.82 L 52.512 61.82 L 52.512 61.82 Q 54.168 62.468 57.264 63.404 L 57.264 63.404 L 57.264 63.404 Q 61.152 64.556 63.6 65.6 L 63.6 65.6 L 63.6 65.6 Q 66.048 66.644 67.776 68.768 L 67.776 68.768 L 67.776 68.768 Q 69.504 70.892 69.504 74.276 L 69.504 74.276 L 69.504 74.276 Q 69.504 77.732 67.632 80.432 L 67.632 80.432 L 67.632 80.432 Q 65.76 83.132 62.448 84.644 L 62.448 84.644 L 62.448 84.644 Q 59.136 86.156 54.96 86.156 L 54.96 86.156 L 54.96 86.156 Z  M 111.984 66.5 L 111.984 68.588 L 85.344 68.588 L 85.344 68.588 Q 85.92 74.132 89.052 77.408 L 89.052 77.408 L 89.052 77.408 Q 92.184 80.684 97.584 80.684 L 97.584 80.684 L 97.584 80.684 Q 100.824 80.684 103.884 79.352 L 103.884 79.352 L 103.884 79.352 Q 106.944 78.02 110.112 75.428 L 110.112 75.428 L 110.4 75.428 L 110.4 81.764 L 110.4 81.764 Q 107.232 84.068 104.136 85.112 L 104.136 85.112 L 104.136 85.112 Q 101.04 86.156 97.512 86.156 L 97.512 86.156 L 97.512 86.156 Q 91.752 86.156 87.504 83.636 L 87.504 83.636 L 87.504 83.636 Q 83.256 81.116 80.988 76.616 L 80.988 76.616 L 80.988 76.616 Q 78.72 72.116 78.72 66.284 L 78.72 66.284 L 78.72 66.284 Q 78.72 60.74 80.772 56.312 L 80.772 56.312 L 80.772 56.312 Q 82.824 51.884 86.64 49.364 L 86.64 49.364 L 86.64 49.364 Q 90.456 46.844 95.568 46.844 L 95.568 46.844 L 95.568 46.844 Q 100.752 46.844 104.46 49.4 L 104.46 49.4 L 104.46 49.4 Q 108.168 51.956 110.076 56.42 L 110.076 56.42 L 110.076 56.42 Q 111.984 60.884 111.984 66.5 L 111.984 66.5 L 111.984 66.5 Z  M 95.64 52.1 L 95.64 52.1 Q 91.176 52.1 88.512 55.34 L 88.512 55.34 L 88.512 55.34 Q 85.848 58.58 85.344 63.692 L 85.344 63.692 L 105.432 63.692 L 105.432 63.692 Q 104.928 58.436 102.516 55.268 L 102.516 55.268 L 102.516 55.268 Q 100.104 52.1 95.64 52.1 L 95.64 52.1 L 95.64 52.1 Z  M 144.168 46.844 L 144.168 46.844 Q 149.496 46.844 152.232 50.12 L 152.232 50.12 L 152.232 50.12 Q 154.968 53.396 154.968 59.228 L 154.968 59.228 L 154.968 85.292 L 148.632 85.292 L 148.632 60.092 L 148.632 60.092 Q 148.632 56.492 147.12 54.512 L 147.12 54.512 L 147.12 54.512 Q 145.608 52.532 142.512 52.532 L 142.512 52.532 L 142.512 52.532 Q 138.984 52.532 136.572 53.684 L 136.572 53.684 L 136.572 53.684 Q 134.16 54.836 131.208 57.428 L 131.208 57.428 L 131.208 85.292 L 124.872 85.292 L 124.872 56.06 L 123.288 47.708 L 129.624 47.708 L 130.632 52.964 L 130.632 52.964 Q 134.016 49.724 136.932 48.284 L 136.932 48.284 L 136.932 48.284 Q 139.848 46.844 144.168 46.844 L 144.168 46.844 L 144.168 46.844 Z  M 203.064 85.292 L 196.728 85.292 L 195.792 80.324 L 195.792 80.324 Q 193.2 83.204 189.96 84.644 L 189.96 84.644 L 189.96 84.644 Q 186.72 86.084 182.688 86.084 L 182.688 86.084 L 182.688 86.084 Q 175.704 86.084 171.96 80.684 L 171.96 80.684 L 171.96 80.684 Q 168.216 75.284 168.216 66.86 L 168.216 66.86 L 168.216 66.86 Q 168.216 61.1 170.268 56.564 L 170.268 56.564 L 170.268 56.564 Q 172.32 52.028 176.172 49.436 L 176.172 49.436 L 176.172 49.436 Q 180.024 46.844 185.352 46.844 L 185.352 46.844 L 185.352 46.844 Q 187.944 46.844 190.248 47.456 L 190.248 47.456 L 190.248 47.456 Q 192.552 48.068 195.144 49.22 L 195.144 49.22 L 195.144 31.004 L 201.48 31.004 L 201.48 76.94 L 203.064 85.292 L 203.064 85.292 Z  M 183.696 80.252 L 183.696 80.252 Q 187.152 80.252 189.852 78.848 L 189.852 78.848 L 189.852 78.848 Q 192.552 77.444 195.144 74.708 L 195.144 74.708 L 195.144 54.044 L 195.144 54.044 Q 190.536 52.46 186 52.46 L 186 52.46 L 186 52.46 Q 180.744 52.46 177.9 56.456 L 177.9 56.456 L 177.9 56.456 Q 175.056 60.452 175.056 66.716 L 175.056 66.716 L 175.056 66.716 Q 175.056 72.692 177.108 76.472 L 177.108 76.472 L 177.108 76.472 Q 179.16 80.252 183.696 80.252 L 183.696 80.252 L 183.696 80.252 Z  M 247.344 66.5 L 247.344 68.588 L 220.704 68.588 L 220.704 68.588 Q 221.28 74.132 224.412 77.408 L 224.412 77.408 L 224.412 77.408 Q 227.544 80.684 232.944 80.684 L 232.944 80.684 L 232.944 80.684 Q 236.184 80.684 239.244 79.352 L 239.244 79.352 L 239.244 79.352 Q 242.304 78.02 245.472 75.428 L 245.472 75.428 L 245.76 75.428 L 245.76 81.764 L 245.76 81.764 Q 242.592 84.068 239.496 85.112 L 239.496 85.112 L 239.496 85.112 Q 236.4 86.156 232.872 86.156 L 232.872 86.156 L 232.872 86.156 Q 227.112 86.156 222.864 83.636 L 222.864 83.636 L 222.864 83.636 Q 218.616 81.116 216.348 76.616 L 216.348 76.616 L 216.348 76.616 Q 214.08 72.116 214.08 66.284 L 214.08 66.284 L 214.08 66.284 Q 214.08 60.74 216.132 56.312 L 216.132 56.312 L 216.132 56.312 Q 218.184 51.884 222 49.364 L 222 49.364 L 222 49.364 Q 225.816 46.844 230.928 46.844 L 230.928 46.844 L 230.928 46.844 Q 236.112 46.844 239.82 49.4 L 239.82 49.4 L 239.82 49.4 Q 243.528 51.956 245.436 56.42 L 245.436 56.42 L 245.436 56.42 Q 247.344 60.884 247.344 66.5 L 247.344 66.5 L 247.344 66.5 Z  M 231 52.1 L 231 52.1 Q 226.536 52.1 223.872 55.34 L 223.872 55.34 L 223.872 55.34 Q 221.208 58.58 220.704 63.692 L 220.704 63.692 L 240.792 63.692 L 240.792 63.692 Q 240.288 58.436 237.876 55.268 L 237.876 55.268 L 237.876 55.268 Q 235.464 52.1 231 52.1 L 231 52.1 L 231 52.1 Z  M 279.528 46.844 L 279.528 46.844 Q 284.856 46.844 287.592 50.12 L 287.592 50.12 L 287.592 50.12 Q 290.328 53.396 290.328 59.228 L 290.328 59.228 L 290.328 85.292 L 283.992 85.292 L 283.992 60.092 L 283.992 60.092 Q 283.992 56.492 282.48 54.512 L 282.48 54.512 L 282.48 54.512 Q 280.968 52.532 277.872 52.532 L 277.872 52.532 L 277.872 52.532 Q 274.344 52.532 271.932 53.684 L 271.932 53.684 L 271.932 53.684 Q 269.52 54.836 266.568 57.428 L 266.568 57.428 L 266.568 85.292 L 260.232 85.292 L 260.232 56.06 L 258.648 47.708 L 264.984 47.708 L 265.992 52.964 L 265.992 52.964 Q 269.376 49.724 272.292 48.284 L 272.292 48.284 L 272.292 48.284 Q 275.208 46.844 279.528 46.844 L 279.528 46.844 L 279.528 46.844 Z " fill="rgb(0,0,0)"/></g></svg>