<?xml version="1.0" encoding="UTF-8" standalone="no"?><!-- Generator: Gravit.io --><svg xmlns="http://www.w3.org/2000/svg" xmlns:xlink="http://www.w3.org/1999/xlink" style="isolation:isolate" viewBox="0 0 337 130" width="337pt" height="130pt"><defs><clipPath id="_clipPath_WVrlSQz14F7D8gMssV4MO7MHRf3gHZM2"><rect width="337" height="130"/></clipPath></defs><g clip-path="url(#_clipPath_WVrlSQz14F7D8gMssV4MO7MHRf3gHZM2)"><rect x="-4.007" y="0" width="346.565" height="127" transform="matrix(1,0,0,1,0,0)" fill="rgb(143,239,236)"/><path d=" M 13.78 39.68 L 13.78 50.84 L 22.42 50.84 L 22.42 55.4 L 13.78 55.4 L 13.78 73.34 L 13.78 73.34 Q 13.78 75.56 14.77 76.91 L 14.77 76.91 L 14.77 76.91 Q 15.76 78.26 17.68 78.26 L 17.68 78.26 L 17.68 78.26 Q 19 78.26 20.05 77.99 L 20.05 77.99 L 20.05 77.99 Q 21.1 77.72 22.42 77.12 L 22.42 77.12 L 22.42 81.8 L 22.42 81.8 Q 21.04 82.46 19.78 82.67 L 19.78 82.67 L 19.78 82.67 Q 18.52 82.88 16.72 82.88 L 16.72 82.88 L 16.72 82.88 Q 12.88 82.88 10.69 80.42 L 10.69 80.42 L 10.69 80.42 Q 8.5 77.96 8.5 73.88 L 8.5 73.88 L 8.5 55.4 L 2.5 55.4 L 2.5 50.84 L 8.5 50.84 L 8.5 42.44 L 13.78 39.68 L 13.78 39.68 Z  M 56.92 66.5 L 56.92 68.24 L 34.72 68.24 L 34.72 68.24 Q 35.2 72.86 37.81 75.59 L 37.81 75.59 L 37.81 75.59 Q 40.42 78.32 44.92 78.32 L 44.92 78.32 L 44.92 78.32 Q 47.62 78.32 50.17 77.21 L 50.17 77.21 L 50.17 77.21 Q 52.72 76.1 55.36 73.94 L 55.36 73.94 L 55.6 73.94 L 55.6 79.22 L 55.6 79.22 Q 52.96 81.14 50.38 82.01 L 50.38 82.01 L 50.38 82.01 Q 47.8 82.88 44.86 82.88 L 44.86 82.88 L 44.86 82.88 Q 40.06 82.88 36.52 80.78 L 36.52 80.78 L 36.52 80.78 Q 32.98 78.68 31.09 74.93 L 31.09 74.93 L 31.09 74.93 Q 29.2 71.18 29.2 66.32 L 29.2 66.32 L 29.2 66.32 Q 29.2 61.7 30.91 58.01 L 30.91 58.01 L 30.91 58.01 Q 32.62 54.32 35.8 52.22 L 35.8 52.22 L 35.8 52.22 Q 38.98 50.12 43.24 50.12 L 43.24 50.12 L 43.24 50.12 Q 47.56 50.12 50.65 52.25 L 50.65 52.25 L 50.65 52.25 Q 53.74 54.38 55.33 58.1 L 55.33 58.1 L 55.33 58.1 Q 56.92 61.82 56.92 66.5 L 56.92 66.5 L 56.92 66.5 Z  M 43.3 54.5 L 43.3 54.5 Q 39.58 54.5 37.36 57.2 L 37.36 57.2 L 37.36 57.2 Q 35.14 59.9 34.72 64.16 L 34.72 64.16 L 51.46 64.16 L 51.46 64.16 Q 51.04 59.78 49.03 57.14 L 49.03 57.14 L 49.03 57.14 Q 47.02 54.5 43.3 54.5 L 43.3 54.5 L 43.3 54.5 Z  M 69.4 43.76 L 69.4 43.76 Q 67.72 43.76 66.67 42.68 L 66.67 42.68 L 66.67 42.68 Q 65.62 41.6 65.62 39.92 L 65.62 39.92 L 65.62 39.92 Q 65.62 38.24 66.67 37.16 L 66.67 37.16 L 66.67 37.16 Q 67.72 36.08 69.4 36.08 L 69.4 36.08 L 69.4 36.08 Q 71.08 36.08 72.13 37.16 L 72.13 37.16 L 72.13 37.16 Q 73.18 38.24 73.18 39.92 L 73.18 39.92 L 73.18 39.92 Q 73.18 41.6 72.13 42.68 L 72.13 42.68 L 72.13 42.68 Q 71.08 43.76 69.4 43.76 L 69.4 43.76 L 69.4 43.76 Z  M 66.76 50.84 L 72.04 50.84 L 72.04 82.16 L 66.76 82.16 L 66.76 50.84 L 66.76 50.84 Z  M 83.56 82.16 L 83.56 36.92 L 88.84 36.92 L 88.84 82.16 L 83.56 82.16 L 83.56 82.16 Z  M 117.34 50.12 L 117.34 50.12 Q 121.78 50.12 124.06 52.85 L 124.06 52.85 L 124.06 52.85 Q 126.34 55.58 126.34 60.44 L 126.34 60.44 L 126.34 82.16 L 121.06 82.16 L 121.06 61.16 L 121.06 61.16 Q 121.06 58.16 119.8 56.51 L 119.8 56.51 L 119.8 56.51 Q 118.54 54.86 115.96 54.86 L 115.96 54.86 L 115.96 54.86 Q 113.02 54.86 111.01 55.82 L 111.01 55.82 L 111.01 55.82 Q 109 56.78 106.54 58.94 L 106.54 58.94 L 106.54 82.16 L 101.26 82.16 L 101.26 57.8 L 99.94 50.84 L 105.22 50.84 L 106.06 55.22 L 106.06 55.22 Q 108.88 52.52 111.31 51.32 L 111.31 51.32 L 111.31 51.32 Q 113.74 50.12 117.34 50.12 L 117.34 50.12 L 117.34 50.12 Z  M 164.92 66.5 L 164.92 68.24 L 142.72 68.24 L 142.72 68.24 Q 143.2 72.86 145.81 75.59 L 145.81 75.59 L 145.81 75.59 Q 148.42 78.32 152.92 78.32 L 152.92 78.32 L 152.92 78.32 Q 155.62 78.32 158.17 77.21 L 158.17 77.21 L 158.17 77.21 Q 160.72 76.1 163.36 73.94 L 163.36 73.94 L 163.6 73.94 L 163.6 79.22 L 163.6 79.22 Q 160.96 81.14 158.38 82.01 L 158.38 82.01 L 158.38 82.01 Q 155.8 82.88 152.86 82.88 L 152.86 82.88 L 152.86 82.88 Q 148.06 82.88 144.52 80.78 L 144.52 80.78 L 144.52 80.78 Q 140.98 78.68 139.09 74.93 L 139.09 74.93 L 139.09 74.93 Q 137.2 71.18 137.2 66.32 L 137.2 66.32 L 137.2 66.32 Q 137.2 61.7 138.91 58.01 L 138.91 58.01 L 138.91 58.01 Q 140.62 54.32 143.8 52.22 L 143.8 52.22 L 143.8 52.22 Q 146.98 50.12 151.24 50.12 L 151.24 50.12 L 151.24 50.12 Q 155.56 50.12 158.65 52.25 L 158.65 52.25 L 158.65 52.25 Q 161.74 54.38 163.33 58.1 L 163.33 58.1 L 163.33 58.1 Q 164.92 61.82 164.92 66.5 L 164.92 66.5 L 164.92 66.5 Z  M 151.3 54.5 L 151.3 54.5 Q 147.58 54.5 145.36 57.2 L 145.36 57.2 L 145.36 57.2 Q 143.14 59.9 142.72 64.16 L 142.72 64.16 L 159.46 64.16 L 159.46 64.16 Q 159.04 59.78 157.03 57.14 L 157.03 57.14 L 157.03 57.14 Q 155.02 54.5 151.3 54.5 L 151.3 54.5 L 151.3 54.5 Z  M 191.74 50.12 L 191.74 50.12 Q 196.18 50.12 198.46 52.85 L 198.46 52.85 L 198.46 52.85 Q 200.74 55.58 200.74 60.44 L 200.74 60.44 L 200.74 82.16 L 195.46 82.16 L 195.46 61.16 L 195.46 61.16 Q 195.46 58.16 194.2 56.51 L 194.2 56.51 L 194.2 56.51 Q 192.94 54.86 190.36 54.86 L 190.36 54.86 L 190.36 54.86 Q 187.42 54.86 185.41 55.82 L 185.41 55.82 L 185.41 55.82 Q 183.4 56.78 180.94 58.94 L 180.94 58.94 L 180.94 82.16 L 175.66 82.16 L 175.66 36.92 L 180.94 36.92 L 180.94 54.74 L 180.94 54.74 Q 183.58 52.34 185.95 51.23 L 185.95 51.23 L 185.95 51.23 Q 188.32 50.12 191.74 50.12 L 191.74 50.12 L 191.74 50.12 Z  M 248.14 50.12 L 248.14 50.12 Q 252.58 50.12 254.86 52.85 L 254.86 52.85 L 254.86 52.85 Q 257.14 55.58 257.14 60.44 L 257.14 60.44 L 257.14 82.16 L 251.86 82.16 L 251.86 61.16 L 251.86 61.16 Q 251.86 58.16 250.6 56.51 L 250.6 56.51 L 250.6 56.51 Q 249.34 54.86 246.76 54.86 L 246.76 54.86 L 246.76 54.86 Q 244.12 54.86 242.32 55.82 L 242.32 55.82 L 242.32 55.82 Q 240.52 56.78 238.18 58.94 L 238.18 58.94 L 238.18 58.94 Q 238.24 59.42 238.24 60.44 L 238.24 60.44 L 238.24 82.16 L 232.96 82.16 L 232.96 61.16 L 232.96 61.16 Q 232.96 58.16 231.7 56.51 L 231.7 56.51 L 231.7 56.51 Q 230.44 54.86 227.86 54.86 L 227.86 54.86 L 227.86 54.86 Q 225.22 54.86 223.42 55.79 L 223.42 55.79 L 223.42 55.79 Q 221.62 56.72 219.34 58.88 L 219.34 58.88 L 219.34 82.16 L 214.06 82.16 L 214.06 57.8 L 212.74 50.84 L 218.02 50.84 L 218.86 55.16 L 218.86 55.16 Q 221.56 52.46 223.75 51.29 L 223.75 51.29 L 223.75 51.29 Q 225.94 50.12 229.24 50.12 L 229.24 50.12 L 229.24 50.12 Q 232.36 50.12 234.43 51.5 L 234.43 51.5 L 234.43 51.5 Q 236.5 52.88 237.46 55.46 L 237.46 55.46 L 237.46 55.46 Q 240.34 52.58 242.56 51.35 L 242.56 51.35 L 242.56 51.35 Q 244.78 50.12 248.14 50.12 L 248.14 50.12 L 248.14 50.12 Z  M 295.72 66.5 L 295.72 68.24 L 273.52 68.24 L 273.52 68.24 Q 274 72.86 276.61 75.59 L 276.61 75.59 L 276.61 75.59 Q 279.22 78.32 283.72 78.32 L 283.72 78.32 L 283.72 78.32 Q 286.42 78.32 288.97 77.21 L 288.97 77.21 L 288.97 77.21 Q 291.52 76.1 294.16 73.94 L 294.16 73.94 L 294.4 73.94 L 294.4 79.22 L 294.4 79.22 Q 291.76 81.14 289.18 82.01 L 289.18 82.01 L 289.18 82.01 Q 286.6 82.88 283.66 82.88 L 283.66 82.88 L 283.66 82.88 Q 278.86 82.88 275.32 80.78 L 275.32 80.78 L 275.32 80.78 Q 271.78 78.68 269.89 74.93 L 269.89 74.93 L 269.89 74.93 Q 268 71.18 268 66.32 L 268 66.32 L 268 66.32 Q 268 61.7 269.71 58.01 L 269.71 58.01 L 269.71 58.01 Q 271.42 54.32 274.6 52.22 L 274.6 52.22 L 274.6 52.22 Q 277.78 50.12 282.04 50.12 L 282.04 50.12 L 282.04 50.12 Q 286.36 50.12 289.45 52.25 L 289.45 52.25 L 289.45 52.25 Q 292.54 54.38 294.13 58.1 L 294.13 58.1 L 294.13 58.1 Q 295.72 61.82 295.72 66.5 L 295.72 66.5 L 295.72 66.5 Z  M 282.1 54.5 L 282.1 54.5 Q 278.38 54.5 276.16 57.2 L 276.16 57.2 L 276.16 57.2 Q 273.94 59.9 273.52 64.16 L 273.52 64.16 L 290.26 64.16 L 290.26 64.16 Q 289.84 59.78 287.83 57.14 L 287.83 57.14 L 287.83 57.14 Q 285.82 54.5 282.1 54.5 L 282.1 54.5 L 282.1 54.5 Z  M 322.54 50.12 L 322.54 50.12 Q 326.98 50.12 329.26 52.85 L 329.26 52.85 L 329.26 52.85 Q 331.54 55.58 331.54 60.44 L 331.54 60.44 L 331.54 82.16 L 326.26 82.16 L 326.26 61.16 L 326.26 61.16 Q 326.26 58.16 325 56.51 L 325 56.51 L 325 56.51 Q 323.74 54.86 321.16 54.86 L 321.16 54.86 L 321.16 54.86 Q 318.22 54.86 316.21 55.82 L 316.21 55.82 L 316.21 55.82 Q 314.2 56.78 311.74 58.94 L 311.74 58.94 L 311.74 82.16 L 306.46 82.16 L 306.46 57.8 L 305.14 50.84 L 310.42 50.84 L 311.26 55.22 L 311.26 55.22 Q 314.08 52.52 316.51 51.32 L 316.51 51.32 L 316.51 51.32 Q 318.94 50.12 322.54 50.12 L 322.54 50.12 L 322.54 50.12 Z " fill="rgb(0,0,0)"/></g></svg>