<?xml version="1.0" encoding="UTF-8" standalone="no"?><!-- Generator: Gravit.io --><svg xmlns="http://www.w3.org/2000/svg" xmlns:xlink="http://www.w3.org/1999/xlink" style="isolation:isolate" viewBox="0 0 458.926 240.624" width="458.926pt" height="240.624pt"><defs><clipPath id="_clipPath_vlEfKI9ezLHKcJZo4n70TlQblHBNGsSq"><rect width="458.926" height="240.624"/></clipPath></defs><g clip-path="url(#_clipPath_vlEfKI9ezLHKcJZo4n70TlQblHBNGsSq)"><polygon points="250.417,240.624,250.661,0,458.926,120.523" fill="rgb(160,201,64)"/><rect x="0" y="54.952" width="340" height="130" transform="matrix(1,0,0,1,0,0)" fill="rgb(160,201,64)"/><rect x="0" y="54.952" width="340" height="130" transform="matrix(1,0,0,1,0,0)" fill="rgb(160,201,64)"/><path d=" M 145.787 92.943 L 152.123 92.943 L 137.147 143.055 L 129.227 143.055 L 117.563 103.671 L 105.899 143.055 L 97.979 143.055 L 83.003 92.943 L 89.699 92.943 L 102.083 134.487 L 114.395 92.943 L 121.091 92.943 L 133.403 134.487 L 145.787 92.943 Z  M 191.147 124.263 L 191.147 126.351 L 164.507 126.351 L 164.507 126.351 Q 165.083 131.895 168.215 135.171 L 168.215 135.171 L 168.215 135.171 Q 171.347 138.447 176.747 138.447 L 176.747 138.447 L 176.747 138.447 Q 179.987 138.447 183.047 137.115 L 183.047 137.115 L 183.047 137.115 Q 186.107 135.783 189.275 133.191 L 189.275 133.191 L 189.563 133.191 L 189.563 139.527 L 189.563 139.527 Q 186.395 141.831 183.299 142.875 L 183.299 142.875 L 183.299 142.875 Q 180.203 143.919 176.675 143.919 L 176.675 143.919 L 176.675 143.919 Q 170.915 143.919 166.667 141.399 L 166.667 141.399 L 166.667 141.399 Q 162.419 138.879 160.151 134.379 L 160.151 134.379 L 160.151 134.379 Q 157.883 129.879 157.883 124.047 L 157.883 124.047 L 157.883 124.047 Q 157.883 118.503 159.935 114.075 L 159.935 114.075 L 159.935 114.075 Q 161.987 109.647 165.803 107.127 L 165.803 107.127 L 165.803 107.127 Q 169.619 104.607 174.731 104.607 L 174.731 104.607 L 174.731 104.607 Q 179.915 104.607 183.623 107.163 L 183.623 107.163 L 183.623 107.163 Q 187.331 109.719 189.239 114.183 L 189.239 114.183 L 189.239 114.183 Q 191.147 118.647 191.147 124.263 L 191.147 124.263 Z  M 174.803 109.863 L 174.803 109.863 Q 170.339 109.863 167.675 113.103 L 167.675 113.103 L 167.675 113.103 Q 165.011 116.343 164.507 121.455 L 164.507 121.455 L 184.595 121.455 L 184.595 121.455 Q 184.091 116.199 181.679 113.031 L 181.679 113.031 L 181.679 113.031 Q 179.267 109.863 174.803 109.863 L 174.803 109.863 Z  M 206.123 96.975 L 206.123 96.975 Q 204.107 96.975 202.847 95.679 L 202.847 95.679 L 202.847 95.679 Q 201.587 94.383 201.587 92.367 L 201.587 92.367 L 201.587 92.367 Q 201.587 90.351 202.847 89.055 L 202.847 89.055 L 202.847 89.055 Q 204.107 87.759 206.123 87.759 L 206.123 87.759 L 206.123 87.759 Q 208.139 87.759 209.399 89.055 L 209.399 89.055 L 209.399 89.055 Q 210.659 90.351 210.659 92.367 L 210.659 92.367 L 210.659 92.367 Q 210.659 94.383 209.399 95.679 L 209.399 95.679 L 209.399 95.679 Q 208.139 96.975 206.123 96.975 L 206.123 96.975 Z  M 202.955 105.471 L 209.291 105.471 L 209.291 143.055 L 202.955 143.055 L 202.955 105.471 Z  M 231.539 92.079 L 231.539 105.471 L 241.907 105.471 L 241.907 110.943 L 231.539 110.943 L 231.539 132.471 L 231.539 132.471 Q 231.539 135.135 232.727 136.755 L 232.727 136.755 L 232.727 136.755 Q 233.915 138.375 236.219 138.375 L 236.219 138.375 L 236.219 138.375 Q 237.803 138.375 239.063 138.051 L 239.063 138.051 L 239.063 138.051 Q 240.323 137.727 241.907 137.007 L 241.907 137.007 L 241.907 142.623 L 241.907 142.623 Q 240.251 143.415 238.739 143.667 L 238.739 143.667 L 238.739 143.667 Q 237.227 143.919 235.067 143.919 L 235.067 143.919 L 235.067 143.919 Q 230.459 143.919 227.831 140.967 L 227.831 140.967 L 227.831 140.967 Q 225.203 138.015 225.203 133.119 L 225.203 133.119 L 225.203 110.943 L 218.003 110.943 L 218.003 105.471 L 225.203 105.471 L 225.203 95.391 L 231.539 92.079 Z  M 283.307 124.263 L 283.307 126.351 L 256.667 126.351 L 256.667 126.351 Q 257.243 131.895 260.375 135.171 L 260.375 135.171 L 260.375 135.171 Q 263.507 138.447 268.907 138.447 L 268.907 138.447 L 268.907 138.447 Q 272.147 138.447 275.207 137.115 L 275.207 137.115 L 275.207 137.115 Q 278.267 135.783 281.435 133.191 L 281.435 133.191 L 281.723 133.191 L 281.723 139.527 L 281.723 139.527 Q 278.555 141.831 275.459 142.875 L 275.459 142.875 L 275.459 142.875 Q 272.363 143.919 268.835 143.919 L 268.835 143.919 L 268.835 143.919 Q 263.075 143.919 258.827 141.399 L 258.827 141.399 L 258.827 141.399 Q 254.579 138.879 252.311 134.379 L 252.311 134.379 L 252.311 134.379 Q 250.043 129.879 250.043 124.047 L 250.043 124.047 L 250.043 124.047 Q 250.043 118.503 252.095 114.075 L 252.095 114.075 L 252.095 114.075 Q 254.147 109.647 257.963 107.127 L 257.963 107.127 L 257.963 107.127 Q 261.779 104.607 266.891 104.607 L 266.891 104.607 L 266.891 104.607 Q 272.075 104.607 275.783 107.163 L 275.783 107.163 L 275.783 107.163 Q 279.491 109.719 281.399 114.183 L 281.399 114.183 L 281.399 114.183 Q 283.307 118.647 283.307 124.263 L 283.307 124.263 Z  M 266.963 109.863 L 266.963 109.863 Q 262.499 109.863 259.835 113.103 L 259.835 113.103 L 259.835 113.103 Q 257.171 116.343 256.667 121.455 L 256.667 121.455 L 276.755 121.455 L 276.755 121.455 Q 276.251 116.199 273.839 113.031 L 273.839 113.031 L 273.839 113.031 Q 271.427 109.863 266.963 109.863 L 266.963 109.863 Z  M 312.035 104.607 L 314.267 104.607 L 314.267 111.591 L 313.187 111.591 L 313.187 111.591 Q 309.803 111.591 307.103 112.815 L 307.103 112.815 L 307.103 112.815 Q 304.403 114.039 302.603 116.343 L 302.603 116.343 L 302.603 143.055 L 296.267 143.055 L 296.267 113.823 L 294.683 105.471 L 301.019 105.471 L 302.315 112.167 L 302.315 112.167 Q 305.267 107.847 307.319 106.227 L 307.319 106.227 L 307.319 106.227 Q 309.371 104.607 312.035 104.607 L 312.035 104.607 Z " fill="rgb(0,0,0)"/></g></svg>