<?xml version="1.0" encoding="UTF-8" standalone="no"?><!-- Generator: Gravit.io --><svg xmlns="http://www.w3.org/2000/svg" xmlns:xlink="http://www.w3.org/1999/xlink" style="isolation:isolate" viewBox="0 0 458.926 240.624" width="458.926pt" height="240.624pt"><defs><clipPath id="_clipPath_H1QVz8rXQySqB7iCPJvzAxKhP7cZTlls"><rect width="458.926" height="240.624"/></clipPath></defs><g clip-path="url(#_clipPath_H1QVz8rXQySqB7iCPJvzAxKhP7cZTlls)"><polygon points="208.508,0,208.265,240.624,0,120.101" fill="rgb(250,109,15)"/><rect x="118.926" y="55.672" width="340" height="130" transform="matrix(-1,0,0,-1,577.851,241.344)" fill="rgb(250,109,15)"/><rect x="118.926" y="55.672" width="340" height="130" transform="matrix(-1,0,0,-1,577.851,241.344)" fill="rgb(250,109,15)"/><path d=" M 149.899 137.583 L 176.971 137.583 L 176.971 143.055 L 141.835 143.055 L 141.835 138.375 L 167.539 98.415 L 143.347 98.415 L 143.347 92.943 L 175.459 92.943 L 175.459 97.623 L 149.899 137.583 Z  M 222.547 143.055 L 216.211 143.055 L 215.203 137.799 L 215.203 137.799 Q 211.891 140.895 208.831 142.407 L 208.831 142.407 L 208.831 142.407 Q 205.771 143.919 201.667 143.919 L 201.667 143.919 L 201.667 143.919 Q 196.555 143.919 193.711 140.535 L 193.711 140.535 L 193.711 140.535 Q 190.867 137.151 190.867 131.535 L 190.867 131.535 L 190.867 105.471 L 197.203 105.471 L 197.203 130.671 L 197.203 130.671 Q 197.203 134.127 198.787 136.179 L 198.787 136.179 L 198.787 136.179 Q 200.371 138.231 203.323 138.231 L 203.323 138.231 L 203.323 138.231 Q 206.707 138.231 209.263 137.007 L 209.263 137.007 L 209.263 137.007 Q 211.819 135.783 214.627 133.335 L 214.627 133.335 L 214.627 105.471 L 220.963 105.471 L 220.963 134.703 L 222.547 143.055 Z  M 253.075 104.607 L 255.307 104.607 L 255.307 111.591 L 254.227 111.591 L 254.227 111.591 Q 250.843 111.591 248.143 112.815 L 248.143 112.815 L 248.143 112.815 Q 245.443 114.039 243.643 116.343 L 243.643 116.343 L 243.643 143.055 L 237.307 143.055 L 237.307 113.823 L 235.723 105.471 L 242.059 105.471 L 243.355 112.167 L 243.355 112.167 Q 246.307 107.847 248.359 106.227 L 248.359 106.227 L 248.359 106.227 Q 250.411 104.607 253.075 104.607 L 253.075 104.607 Z  M 298.867 143.055 L 292.531 143.055 L 291.523 137.799 L 291.523 137.799 Q 288.211 140.895 285.151 142.407 L 285.151 142.407 L 285.151 142.407 Q 282.091 143.919 277.987 143.919 L 277.987 143.919 L 277.987 143.919 Q 272.875 143.919 270.031 140.535 L 270.031 140.535 L 270.031 140.535 Q 267.187 137.151 267.187 131.535 L 267.187 131.535 L 267.187 105.471 L 273.523 105.471 L 273.523 130.671 L 273.523 130.671 Q 273.523 134.127 275.107 136.179 L 275.107 136.179 L 275.107 136.179 Q 276.691 138.231 279.643 138.231 L 279.643 138.231 L 279.643 138.231 Q 283.027 138.231 285.583 137.007 L 285.583 137.007 L 285.583 137.007 Q 288.139 135.783 290.947 133.335 L 290.947 133.335 L 290.947 105.471 L 297.283 105.471 L 297.283 134.703 L 298.867 143.055 Z  M 275.323 96.471 L 275.323 96.471 Q 273.523 96.471 272.407 95.319 L 272.407 95.319 L 272.407 95.319 Q 271.291 94.167 271.291 92.367 L 271.291 92.367 L 271.291 92.367 Q 271.291 90.567 272.407 89.415 L 272.407 89.415 L 272.407 89.415 Q 273.523 88.263 275.323 88.263 L 275.323 88.263 L 275.323 88.263 Q 277.123 88.263 278.239 89.415 L 278.239 89.415 L 278.239 89.415 Q 279.355 90.567 279.355 92.367 L 279.355 92.367 L 279.355 92.367 Q 279.355 94.167 278.239 95.319 L 278.239 95.319 L 278.239 95.319 Q 277.123 96.471 275.323 96.471 L 275.323 96.471 Z  M 289.147 96.471 L 289.147 96.471 Q 287.347 96.471 286.231 95.319 L 286.231 95.319 L 286.231 95.319 Q 285.115 94.167 285.115 92.367 L 285.115 92.367 L 285.115 92.367 Q 285.115 90.567 286.231 89.415 L 286.231 89.415 L 286.231 89.415 Q 287.347 88.263 289.147 88.263 L 289.147 88.263 L 289.147 88.263 Q 290.947 88.263 292.063 89.415 L 292.063 89.415 L 292.063 89.415 Q 293.179 90.567 293.179 92.367 L 293.179 92.367 L 293.179 92.367 Q 293.179 94.167 292.063 95.319 L 292.063 95.319 L 292.063 95.319 Q 290.947 96.471 289.147 96.471 L 289.147 96.471 Z  M 327.163 143.919 L 327.163 143.919 Q 321.907 143.919 317.947 141.399 L 317.947 141.399 L 317.947 141.399 Q 313.987 138.879 311.899 134.451 L 311.899 134.451 L 311.899 134.451 Q 309.811 130.023 309.811 124.407 L 309.811 124.407 L 309.811 124.407 Q 309.811 118.719 311.899 114.219 L 311.899 114.219 L 311.899 114.219 Q 313.987 109.719 317.947 107.163 L 317.947 107.163 L 317.947 107.163 Q 321.907 104.607 327.235 104.607 L 327.235 104.607 L 327.235 104.607 Q 330.979 104.607 333.787 105.399 L 333.787 105.399 L 333.787 105.399 Q 336.595 106.191 339.115 108.279 L 339.115 108.279 L 339.115 114.399 L 338.827 114.399 L 338.827 114.399 Q 336.235 112.239 333.463 111.303 L 333.463 111.303 L 333.463 111.303 Q 330.691 110.367 327.163 110.367 L 327.163 110.367 L 327.163 110.367 Q 322.051 110.367 319.279 114.327 L 319.279 114.327 L 319.279 114.327 Q 316.507 118.287 316.507 124.479 L 316.507 124.479 L 316.507 124.479 Q 316.507 130.455 319.279 134.307 L 319.279 134.307 L 319.279 134.307 Q 322.051 138.159 327.091 138.159 L 327.091 138.159 L 327.091 138.159 Q 330.835 138.159 333.787 136.971 L 333.787 136.971 L 333.787 136.971 Q 336.739 135.783 339.619 133.191 L 339.619 133.191 L 339.907 133.191 L 339.907 139.311 L 339.907 139.311 Q 337.243 141.831 334.183 142.875 L 334.183 142.875 L 334.183 142.875 Q 331.123 143.919 327.163 143.919 L 327.163 143.919 Z  M 375.763 143.055 L 364.675 125.487 L 358.771 132.111 L 358.771 143.055 L 352.435 143.055 L 352.435 88.767 L 358.771 88.767 L 358.771 123.831 L 375.187 105.471 L 382.675 105.471 L 368.923 120.807 L 383.539 143.055 L 375.763 143.055 Z " fill="rgb(0,0,0)"/></g></svg>